<svg width="82" height="82" viewBox="0 0 82 82" fill="none" xmlns="http://www.w3.org/2000/svg">
<rect x="40.8419" y="1.41421" width="56" height="56" transform="rotate(45 40.8419 1.41421)" stroke="black" stroke-width="6"/>
<path d="M35.312 29.696V43.808C35.312 45.792 35.792 47.264 36.752 48.224C37.7333 49.184 39.088 49.664 40.816 49.664C42.5227 49.664 43.856 49.184 44.816 48.224C45.7973 47.264 46.288 45.792 46.288 43.808V29.696H49.2V43.776C49.2 45.632 48.8267 47.2 48.08 48.48C47.3333 49.7387 46.32 50.6773 45.04 51.296C43.7813 51.9147 42.3627 52.224 40.784 52.224C39.2053 52.224 37.776 51.9147 36.496 51.296C35.2373 50.6773 34.2347 49.7387 33.488 48.48C32.7627 47.2 32.4 45.632 32.4 43.776V29.696H35.312Z" stroke="black" stroke-width="2"/>
</svg>
