<svg width="47" height="47" viewBox="0 0 47 47" fill="none" xmlns="http://www.w3.org/2000/svg">
<path d="M43.5979 38.738C43.6199 38.6643 43.6349 38.5865 43.6349 38.5047V11.505C43.6349 11.4226 43.6199 11.3444 43.5974 11.2702C43.5942 11.26 43.5923 11.2499 43.5885 11.2397C43.5586 11.1528 43.5145 11.0745 43.4593 11.0059C43.4555 11.0013 43.4551 10.9957 43.4513 10.9912C43.449 10.9886 43.4462 10.9876 43.4438 10.9851C43.3848 10.917 43.315 10.8621 43.2368 10.8209C43.2307 10.8179 43.226 10.8138 43.22 10.8108C43.146 10.7747 43.0654 10.7543 42.9806 10.7482C42.9722 10.7477 42.9642 10.7457 42.9558 10.7457C42.9478 10.7452 42.9408 10.7432 42.9329 10.7432H3.96446C3.95649 10.7432 3.949 10.7452 3.94104 10.7457C3.93355 10.7462 3.92605 10.7477 3.91856 10.7482C3.83285 10.7543 3.75089 10.7752 3.67596 10.8118C3.67127 10.8138 3.66753 10.8174 3.66284 10.8194C3.58323 10.8606 3.51251 10.9165 3.45303 10.9856C3.45068 10.9881 3.44787 10.9886 3.44553 10.9912C3.44179 10.9952 3.44132 11.0008 3.43757 11.0054C3.38231 11.074 3.33781 11.1528 3.30784 11.2397C3.30409 11.2499 3.30222 11.26 3.29894 11.2707C3.27646 11.3449 3.26147 11.4232 3.26147 11.5055V38.5057C3.26147 38.5891 3.27693 38.6684 3.29988 38.7436C3.30316 38.7537 3.30503 38.7634 3.30831 38.7735C3.33875 38.861 3.38371 38.9397 3.43944 39.0083C3.44272 39.0124 3.44366 39.0175 3.44694 39.0216C3.44975 39.0251 3.45349 39.0271 3.45677 39.0307C3.47972 39.0566 3.50501 39.0795 3.53124 39.1019C3.54295 39.1115 3.55325 39.1232 3.56543 39.1323C3.59634 39.1557 3.62959 39.1745 3.66378 39.1918C3.67221 39.1959 3.6797 39.2025 3.68813 39.206C3.7729 39.2452 3.8661 39.2675 3.96399 39.2675H42.9319C43.0298 39.2675 43.123 39.2457 43.2078 39.206C43.2209 39.1999 43.2331 39.1908 43.2457 39.1837C43.2747 39.1679 43.3038 39.1517 43.3305 39.1318C43.3445 39.1212 43.3572 39.1074 43.3708 39.0958C43.3946 39.0749 43.4181 39.0541 43.4387 39.0302C43.4424 39.0261 43.4466 39.0231 43.4504 39.019C43.4541 39.0144 43.4551 39.0083 43.4588 39.0038C43.5136 38.9357 43.5576 38.8574 43.5876 38.771C43.5923 38.7598 43.5946 38.7492 43.5979 38.738ZM4.66697 13.2339L16.4912 24.9538L4.66697 36.7671V13.2339ZM28.9018 24.3795C28.8531 24.414 28.8016 24.443 28.7608 24.4918C28.7454 24.5101 28.7402 24.534 28.7266 24.5533L23.4484 29.7848L5.77507 12.2673H41.1218L28.9018 24.3795ZM17.5328 25.9859L22.9745 31.3796C23.1089 31.5127 23.2784 31.5793 23.4484 31.5793C23.6184 31.5793 23.788 31.5127 23.9219 31.3796L29.2961 26.053L41.1185 37.7429H5.76476L17.5328 25.9859ZM30.3382 25.0203L42.2299 13.2339V36.7793L30.3382 25.0203Z" fill="white"/>
</svg>
