<svg width="35" height="35" viewBox="0 0 35 35" fill="none" xmlns="http://www.w3.org/2000/svg">
<path d="M23.9532 3.82812C19.7668 3.82812 16.3625 7.23242 16.3625 11.4187C16.3625 11.6703 16.4254 11.9164 16.45 12.1625C11.2739 11.6676 6.69651 9.17383 3.58753 5.35937C3.4426 5.17617 3.21839 5.07773 2.98323 5.09414C2.75081 5.11055 2.543 5.24453 2.42815 5.44687C1.77464 6.5707 1.40003 7.86406 1.40003 9.25312C1.40003 10.9348 2.00159 12.4742 2.93128 13.7375C2.75081 13.6582 2.55393 13.6145 2.3844 13.5187C2.16839 13.4039 1.90862 13.4094 1.69807 13.5352C1.48753 13.6609 1.35901 13.8879 1.35628 14.1312V14.2187C1.35628 16.7973 2.69065 19.0367 4.6594 20.4094C4.63753 20.4066 4.61565 20.4148 4.59378 20.4094C4.35315 20.3684 4.10979 20.4531 3.94846 20.6363C3.78714 20.8195 3.73518 21.0738 3.80628 21.3062C4.58831 23.7371 6.5844 25.5937 9.05628 26.2719C7.08753 27.4422 4.80432 28.1312 2.34065 28.1312C1.80745 28.1312 1.29612 28.1039 0.787526 28.0437C0.459401 28 0.144948 28.1914 0.0355729 28.5031C-0.0765365 28.8148 0.0465104 29.1621 0.328151 29.3344C3.48635 31.3605 7.23518 32.55 11.2657 32.55C17.7981 32.55 22.9223 29.8211 26.3594 25.9219C29.7965 22.0227 31.5875 16.9586 31.5875 12.2281C31.5875 12.0285 31.5711 11.8344 31.5657 11.6375C32.8481 10.6559 33.9938 9.50469 34.8907 8.15937C35.0684 7.89961 35.0492 7.55234 34.8442 7.31172C34.6418 7.07109 34.3 6.99727 34.0157 7.13125C33.6547 7.29258 33.2336 7.30898 32.8563 7.4375C33.3539 6.77305 33.7805 6.05664 34.0375 5.25C34.125 4.97383 34.0293 4.67031 33.8024 4.48984C33.5754 4.31211 33.2582 4.29023 33.0094 4.44062C31.8145 5.14883 30.491 5.64648 29.0938 5.95C27.7375 4.68125 25.952 3.82812 23.9532 3.82812ZM23.9532 5.22812C25.7387 5.22812 27.352 5.99102 28.4813 7.19687C28.6508 7.37187 28.8996 7.4457 29.1375 7.39375C30.0508 7.21328 30.9176 6.94805 31.7625 6.60625C31.2758 7.2625 30.6742 7.82305 29.9688 8.24687C29.6489 8.40273 29.4985 8.77187 29.616 9.1082C29.7309 9.4418 30.0809 9.63594 30.4282 9.55937C31.1282 9.47461 31.7516 9.19023 32.4188 9.0125C31.8199 9.66055 31.1637 10.2457 30.45 10.7625C30.2559 10.9047 30.1492 11.1344 30.1657 11.375C30.1766 11.6594 30.1875 11.941 30.1875 12.2281C30.1875 16.6031 28.5086 21.3527 25.3094 24.9812C22.1102 28.6098 17.4125 31.15 11.2657 31.15C8.47385 31.15 5.83792 30.532 3.45628 29.4437C6.4094 29.2168 9.13284 28.1723 11.3313 26.4469C11.561 26.2637 11.6512 25.9574 11.5582 25.6785C11.4653 25.3996 11.2082 25.2082 10.9157 25.2C8.60784 25.159 6.67463 23.8164 5.64378 21.9187C5.68206 21.9187 5.71487 21.9187 5.75315 21.9187C6.44495 21.9187 7.12854 21.8312 7.76565 21.6562C8.0719 21.566 8.28245 21.2816 8.27151 20.9617C8.26057 20.6418 8.03362 20.3684 7.7219 20.3C5.23088 19.7969 3.36331 17.768 2.93128 15.2469C3.63675 15.4902 4.35862 15.6816 5.14065 15.7062C5.46057 15.7254 5.75042 15.5258 5.84885 15.2223C5.94729 14.9187 5.82698 14.5852 5.55628 14.4156C3.89378 13.3027 2.80003 11.4078 2.80003 9.25312C2.80003 8.45469 3.00784 7.72187 3.28128 7.02187C6.78128 10.8637 11.6813 13.4148 17.2157 13.6937C17.4344 13.7047 17.6477 13.6145 17.7899 13.4477C17.9321 13.2781 17.9867 13.0539 17.9375 12.8406C17.8309 12.3867 17.7625 11.9055 17.7625 11.4187C17.7625 7.98984 20.5242 5.22812 23.9532 5.22812Z" fill="currentColor"/>
</svg>
