<svg width="35" height="35" viewBox="0 0 35 35" fill="none" xmlns="http://www.w3.org/2000/svg">
<path d="M17.5 1.3999C8.6167 1.3999 1.40002 8.61658 1.40002 17.4999C1.40002 20.3553 2.18311 23.02 3.48909 25.3462L1.426 32.7112C1.39304 32.8291 1.39155 32.9535 1.42168 33.0721C1.45181 33.1907 1.51251 33.2994 1.59772 33.3872C1.68293 33.4751 1.78968 33.539 1.90732 33.5728C2.02496 33.6065 2.14939 33.6088 2.26819 33.5794L9.94768 31.6763C12.2043 32.881 14.7648 33.5999 17.5 33.5999C26.3834 33.5999 33.6 26.3832 33.6 17.4999C33.6 8.61658 26.3834 1.3999 17.5 1.3999ZM17.5 2.7999C25.6267 2.7999 32.2 9.37323 32.2 17.4999C32.2 25.6266 25.6267 32.1999 17.5 32.1999C14.8946 32.1999 12.4545 31.5206 10.3332 30.3337C10.1781 30.247 9.99577 30.2226 9.82327 30.2653L3.09807 31.9319L4.90139 25.4979C4.9272 25.407 4.93432 25.3118 4.92234 25.2181C4.91035 25.1243 4.87951 25.034 4.83167 24.9524C3.54251 22.7664 2.80002 20.223 2.80002 17.4999C2.80002 9.37323 9.37335 2.7999 17.5 2.7999ZM11.6498 9.0999C11.2011 9.0999 10.5603 9.26685 10.0338 9.83408C9.71761 10.1748 8.40002 11.4586 8.40002 13.7155C8.40002 16.0686 10.032 18.099 10.2293 18.3599H10.2307V18.3612C10.212 18.3366 10.4811 18.7264 10.8405 19.1938C11.1998 19.6613 11.7022 20.2752 12.3334 20.9397C13.5959 22.2689 15.3708 23.8051 17.5739 24.7446C18.5884 25.1766 19.3888 25.4375 19.9951 25.6278C21.1189 25.9807 22.1425 25.9271 22.9114 25.8138C23.4869 25.729 24.1198 25.4527 24.7461 25.0563C25.3724 24.66 25.9862 24.1672 26.2569 23.4185C26.4508 22.8817 26.5493 22.3856 26.585 21.9774C26.6028 21.7734 26.6051 21.5932 26.5918 21.4265C26.5785 21.2597 26.5927 21.132 26.4373 20.8769C26.1114 20.3418 25.7424 20.3278 25.3573 20.1372C25.1433 20.0313 24.5341 19.7338 23.9231 19.4427C23.3127 19.1518 22.7843 18.8943 22.4588 18.7782C22.2532 18.7042 22.0021 18.5977 21.6399 18.6388C21.2776 18.6798 20.9198 18.9412 20.7115 19.2499C20.5141 19.5426 19.7193 20.4807 19.477 20.7565C19.4738 20.7546 19.4948 20.7643 19.399 20.7169C19.0994 20.5686 18.7328 20.4425 18.1905 20.1563C17.6481 19.8702 16.9696 19.4477 16.2272 18.7933V18.7919C15.1221 17.8191 14.3481 16.5977 14.1039 16.1874C14.1204 16.1678 14.102 16.1915 14.1367 16.1573L14.1381 16.156C14.3877 15.9101 14.6088 15.6166 14.7957 15.4013C15.0607 15.096 15.1776 14.8269 15.3043 14.5755C15.5568 14.0744 15.4162 13.523 15.2701 13.2329V13.2315C15.2802 13.2516 15.1911 13.055 15.0951 12.8282C14.9989 12.6008 14.8762 12.3059 14.7451 11.9915C14.483 11.3627 14.1904 10.6573 14.0164 10.2442V10.2429C13.8114 9.75628 13.5341 9.40574 13.1715 9.23662C12.8089 9.0675 12.4886 9.11558 12.4756 9.11494H12.4742C12.2155 9.103 11.9316 9.0999 11.6498 9.0999ZM11.6498 10.4999C11.9197 10.4999 12.1858 10.5032 12.4086 10.5136C12.6379 10.525 12.6236 10.5259 12.5795 10.5054C12.5347 10.4845 12.5955 10.4777 12.7258 10.787C12.8962 11.1915 13.1902 11.8994 13.4531 12.5302C13.5846 12.8456 13.7076 13.1416 13.8059 13.3737C13.9041 13.6059 13.9574 13.7355 14.0192 13.8591V13.8604L14.0205 13.8618C14.0811 13.9813 14.0758 13.9048 14.0547 13.9466C13.907 14.2398 13.8869 14.3117 13.7375 14.4839C13.51 14.746 13.2779 15.0383 13.1551 15.1593C13.0476 15.2649 12.8537 15.4293 12.7326 15.7513C12.6114 16.0737 12.668 16.5161 12.8625 16.8464C13.1215 17.2861 13.9751 18.6754 15.3016 19.8433C16.137 20.5797 16.9152 21.0671 17.5369 21.395C18.1587 21.723 18.665 21.9145 18.7783 21.9706C19.0474 22.1038 19.3415 22.2072 19.6834 22.1661C20.0254 22.1251 20.3202 21.9176 20.5078 21.7054L20.5092 21.704C20.759 21.4208 21.5011 20.5734 21.8573 20.0511C21.8723 20.0564 21.8674 20.0523 21.9858 20.0948V20.0962H21.9871C22.0412 20.1154 22.718 20.4184 23.3215 20.706C23.925 20.9935 24.5375 21.2924 24.7365 21.3909C25.0238 21.5331 25.1595 21.6256 25.1946 21.6261C25.1969 21.6877 25.1993 21.7544 25.1905 21.8558C25.1659 22.1369 25.0908 22.5261 24.9403 22.9427C24.8665 23.1466 24.4825 23.5673 23.9983 23.8737C23.514 24.1802 22.9246 24.3967 22.7063 24.4288C22.05 24.5255 21.2707 24.5608 20.4149 24.2921C19.8215 24.1058 19.0815 23.8647 18.1235 23.4567C16.1804 22.6281 14.5289 21.218 13.3492 19.9759C12.7594 19.3548 12.2868 18.7767 11.9506 18.3394C11.615 17.9028 11.4685 17.6756 11.3463 17.5149L11.3449 17.5136C11.1281 17.2268 9.80002 15.3795 9.80002 13.7155C9.80002 11.9545 10.618 11.2639 11.0606 10.787C11.2929 10.5366 11.547 10.4999 11.6498 10.4999Z" fill="currentColor"/>
</svg>
