<svg width="35" height="35" viewBox="0 0 35 35" fill="none" xmlns="http://www.w3.org/2000/svg">
<path d="M13.912 18.616V11.528H12.328V17.976C12.328 19.384 12.52 20.472 12.904 21.224C13.592 22.616 14.904 23.304 16.84 23.304C18.776 23.304 20.104 22.616 20.792 21.224C21.176 20.472 21.368 19.384 21.368 17.976V11.528H19.784V18.616C19.784 19.448 19.672 20.104 19.4 20.6C18.936 21.496 18.04 21.944 16.712 21.944C15.624 21.944 14.84 21.528 14.376 20.696C14.056 20.136 13.912 19.448 13.912 18.616Z" fill="black"/>
<rect x="17.0082" y="1.41416" width="22.2442" height="22.2442" transform="rotate(44.5103 17.0082 1.41416)" stroke="black" stroke-width="2"/>
</svg>
